<?xml version="1.0" encoding="utf-8"?>
<!-- Generator: Adobe Illustrator 16.0.3, SVG Export Plug-In . SVG Version: 6.00 Build 0)  -->
<!DOCTYPE svg PUBLIC "-//W3C//DTD SVG 1.1//EN" "http://www.w3.org/Graphics/SVG/1.1/DTD/svg11.dtd">
<svg version="1.1" xmlns="http://www.w3.org/2000/svg" xmlns:xlink="http://www.w3.org/1999/xlink" x="0px" y="0px" width="960px"
	 height="560px" viewBox="0 0 960 560" enable-background="new 0 0 960 560" xml:space="preserve">
<g id="Capa_1">
	
		<image overflow="visible" width="332" height="437" xlink:href="C:\Users\Job\Downloads\logo-cut.jpg"  transform="matrix(1 0 0 1 1136 -548)">
	</image>
	<path fill="none" stroke="#000000" stroke-miterlimit="10" d="M1213-464.5h100c0,0,6.25,1.5,7.25,7.25l1.25,56.75
		c0,0-3,36.25-38.25,39.5l-0.25-14.75l-3.75-4.333L1246.375-380l-3.875,4.5v14.5c0,0-30-0.25-39-36.75V-456
		C1203.5-456,1206.75-464.5,1213-464.5z"/>
	<path fill="none" stroke="#000000" stroke-miterlimit="10" d="M1220.5-432.5h85v11.5c0,0-0.125,13.321-15.5,27.125
		c0,0-24.563,19.5-54.313,0c0,0-12.688-9.125-15.188-26.25V-432.5z"/>
	<path fill="none" stroke="#000000" stroke-miterlimit="10" d="M1231-471.5h63c0,0-1.5-10.667-19.333-16c0,0-10.667-2.5-24,0
		C1250.667-487.5,1237.166-484.167,1231-471.5z"/>
	<path fill="none" stroke="#000000" stroke-miterlimit="10" d="M1260.438-494.5h4.063v-8.5c0,0,7.167-3.833,7.667-9.5
		c0,0,0.958-9.938-8.5-9.333c0,0-11.104-0.729-10.5,8.5c0,0,1.771,7.771,7.292,10.486L1260.438-494.5z"/>
	<path fill="none" stroke="#000000" stroke-miterlimit="10" d="M1326.5-427.5v28.5c0,0,10.584-1.125,10.917-9.604
		s0.25-18.896,0.25-18.896H1326.5z"/>
	<path fill="none" stroke="#000000" stroke-miterlimit="10" d="M1198.5-428.5v28.5c0,0-10.496-1.125-10.829-9.604
		s-0.162-18.896-0.162-18.896H1198.5z"/>
	<rect x="1247.5" y="-373.5" fill="none" stroke="#000000" stroke-miterlimit="10" width="30" height="14"/>
	<path fill="none" stroke="#000000" stroke-miterlimit="10" d="M1209.167-372.667c0,0,14.333,17.166,32.167,18.333
		c0,0,36.666,1.667,42.166,0c0,0,23.5-4.5,32.334-18.333c0,0,17.583,42.417,0,76.667c0,0-0.771-4.313-2.334-6.438
		c0,0-8.313,17.625-18,17l0.063-12.688c0,0-12.438,18.75-27.438,20.5c0,0-1.5-12.375-5.5-11.625c0,0-4.125-1.25-5.5,11.625
		c0,0-17.5-5.125-28.125-20.125l0.031,13.156c0,0-13.156-5.406-17.156-17.406c0,0-2.791,2-2.708,6.875
		C1209.167-295.125,1191.959-340.992,1209.167-372.667z"/>
	<path fill="none" stroke="#000000" stroke-miterlimit="10" d="M1203.5-374.25c0,0-16.75,29-5,62.75c0,0-15.416-3.5-18.25-23.25
		c0,0-0.813-17.813,4-24.75C1184.25-359.5,1192.418-373.327,1203.5-374.25z"/>
	<path fill="none" stroke="#000000" stroke-miterlimit="10" d="M1321.198-374.25c0,0,16.75,29,5,62.75c0,0,15.417-3.5,18.25-23.25
		c0,0,0.813-17.813-4-24.75C1340.448-359.5,1332.279-373.327,1321.198-374.25z"/>
	
		<line fill="none" stroke="#000000" stroke-width="3" stroke-linecap="round" stroke-miterlimit="10" x1="1249" y1="-513.5" x2="1237" y2="-513.5"/>
	
		<line fill="none" stroke="#000000" stroke-width="3" stroke-linecap="round" stroke-miterlimit="10" x1="1289" y1="-513.5" x2="1277" y2="-513.5"/>
	
		<line fill="none" stroke="#000000" stroke-width="3" stroke-linecap="round" stroke-miterlimit="10" x1="1281.242" y1="-531.743" x2="1272.758" y2="-523.257"/>
	
		<line fill="none" stroke="#000000" stroke-width="3" stroke-linecap="round" stroke-miterlimit="10" x1="1252.242" y1="-503.743" x2="1243.758" y2="-495.257"/>
	
		<line fill="none" stroke="#000000" stroke-width="3" stroke-linecap="round" stroke-miterlimit="10" x1="1262.5" y1="-539" x2="1262.5" y2="-527"/>
	
		<line fill="none" stroke="#000000" stroke-width="3" stroke-linecap="round" stroke-miterlimit="10" x1="1244.258" y1="-531.243" x2="1252.742" y2="-522.757"/>
	
		<line fill="none" stroke="#000000" stroke-width="3" stroke-linecap="round" stroke-miterlimit="10" x1="1273.258" y1="-504.243" x2="1281.742" y2="-495.757"/>
	<g>
		<path fill="none" stroke="#312B4A" stroke-miterlimit="10" d="M1533-465.5h100c0,0,6.25,1.5,7.25,7.25l1.25,56.75
			c0,0-3,36.25-38.25,39.5l-0.25-14.75l-3.75-4.333L1566.375-381l-3.875,4.5v14.5c0,0-30-0.25-39-36.75V-457
			C1523.5-457,1526.75-465.5,1533-465.5z"/>
		<path fill="none" stroke="#312B4A" stroke-miterlimit="10" d="M1540.5-433.5h85v11.5c0,0-0.125,13.321-15.5,27.125
			c0,0-24.563,19.5-54.313,0c0,0-12.688-9.125-15.188-26.25V-433.5z"/>
		<path fill="none" stroke="#312B4A" stroke-miterlimit="10" d="M1551-472.5h63c0,0-1.5-10.667-19.333-16c0,0-10.667-2.5-24,0
			C1570.667-488.5,1557.166-485.167,1551-472.5z"/>
		<path fill="none" stroke="#312B4A" stroke-miterlimit="10" d="M1580.438-495.5h4.063v-8.5c0,0,7.167-3.833,7.667-9.5
			c0,0,0.958-9.938-8.5-9.333c0,0-11.104-0.729-10.5,8.5c0,0,1.771,7.771,7.292,10.486L1580.438-495.5z"/>
		<path fill="none" stroke="#312B4A" stroke-miterlimit="10" d="M1646.5-428.5v28.5c0,0,10.584-1.125,10.917-9.604
			s0.25-18.896,0.25-18.896H1646.5z"/>
		<path fill="none" stroke="#312B4A" stroke-miterlimit="10" d="M1518.5-429.5v28.5c0,0-10.496-1.125-10.829-9.604
			s-0.162-18.896-0.162-18.896H1518.5z"/>
		<rect x="1567.5" y="-374.5" fill="none" stroke="#312B4A" stroke-miterlimit="10" width="30" height="14"/>
		<path fill="none" stroke="#312B4A" stroke-miterlimit="10" d="M1529.167-373.667c0,0,14.333,17.166,32.167,18.333
			c0,0,36.666,1.667,42.166,0c0,0,23.5-4.5,32.334-18.333c0,0,17.583,42.417,0,76.667c0,0-0.771-4.313-2.334-6.438
			c0,0-8.313,17.625-18,17l0.063-12.688c0,0-12.438,18.75-27.438,20.5c0,0-1.5-12.375-5.5-11.625c0,0-4.125-1.25-5.5,11.625
			c0,0-17.5-5.125-28.125-20.125l0.031,13.156c0,0-13.156-5.406-17.156-17.406c0,0-2.791,2-2.708,6.875
			C1529.167-296.125,1511.959-341.992,1529.167-373.667z"/>
		<path fill="none" stroke="#312B4A" stroke-miterlimit="10" d="M1523.5-375.25c0,0-16.75,29-5,62.75c0,0-15.416-3.5-18.25-23.25
			c0,0-0.813-17.813,4-24.75C1504.25-360.5,1512.418-374.327,1523.5-375.25z"/>
		<path fill="none" stroke="#312B4A" stroke-miterlimit="10" d="M1641.198-375.25c0,0,16.75,29,5,62.75c0,0,15.417-3.5,18.25-23.25
			c0,0,0.813-17.813-4-24.75C1660.448-360.5,1652.279-374.327,1641.198-375.25z"/>
		
			<line fill="none" stroke="#312B4A" stroke-width="3" stroke-linecap="round" stroke-miterlimit="10" x1="1569" y1="-514.5" x2="1557" y2="-514.5"/>
		
			<line fill="none" stroke="#312B4A" stroke-width="3" stroke-linecap="round" stroke-miterlimit="10" x1="1609" y1="-514.5" x2="1597" y2="-514.5"/>
		
			<line fill="none" stroke="#312B4A" stroke-width="3" stroke-linecap="round" stroke-miterlimit="10" x1="1601.242" y1="-532.743" x2="1592.758" y2="-524.257"/>
		
			<line fill="none" stroke="#312B4A" stroke-width="3" stroke-linecap="round" stroke-miterlimit="10" x1="1572.242" y1="-504.743" x2="1563.758" y2="-496.257"/>
		
			<line fill="none" stroke="#312B4A" stroke-width="3" stroke-linecap="round" stroke-miterlimit="10" x1="1582.5" y1="-540" x2="1582.5" y2="-528"/>
		
			<line fill="none" stroke="#312B4A" stroke-width="3" stroke-linecap="round" stroke-miterlimit="10" x1="1564.258" y1="-532.243" x2="1572.742" y2="-523.757"/>
		
			<line fill="none" stroke="#312B4A" stroke-width="3" stroke-linecap="round" stroke-miterlimit="10" x1="1593.258" y1="-505.243" x2="1601.742" y2="-496.757"/>
	</g>
</g>
<g id="Capa_2">
	<g>
		
			<circle fill-rule="evenodd" clip-rule="evenodd" fill="#969094" stroke="#280822" stroke-miterlimit="10" cx="1203.592" cy="-716.914" r="92.004"/>
		<g>
			<path fill-rule="evenodd" clip-rule="evenodd" fill="#1E2460" d="M1199.449-731.203c0-13.322-0.145-26.646,0.09-39.964
				c0.068-3.901-0.949-5.231-4.961-5.075c-2.072,0.081-15.837-0.276-15.828-4.383c0.009-4.1,13.385-4.847,15.5-4.875
				c15.316-0.211,31.057-0.102,46.375-0.012c1.645,0.01,13.668,0.958,13.502,4.512c-0.146,3.095-11.928,4.818-13.465,4.868
				c-6.955,0.222-6.935,0.156-6.963,7.374c-0.094,24.141,0.338,48.301-0.471,72.418c-0.721,21.494-11.7,34.762-32.702,40.471
				c-14.026,3.813-28.286,4.158-42.147-1.488c-14.666-5.975-21.924-22.373-15.984-36.648c2.704-6.498,7.303-11.121,14.801-11.786
				c6.287-0.558,11.43,1.429,14.987,6.915c5.474,8.441,2.45,18.826-6.79,22.8c-2.586,1.112-3.209,1.205-5.893,2.078
				c-5.016,1.633,2.207,4.991,7.375,6.374c8.875,2.375,4.125,1.063,9.625,2.063c12.611,2.293,15.188-0.063,20.099-11.469
				c3.343-7.764,2.841-16.358,2.849-24.699C1199.455-711.555,1199.449-721.379,1199.449-731.203z"/>
			<path fill="#FFFFFF" d="M1194.5-731.247c0,0,0.024-2.199,0.069-6.322c0.034-2.062,0.044-4.604,0.027-7.594
				c-0.003-1.495-0.006-3.102-0.01-4.815c-0.026-1.714-0.12-3.536-0.183-5.461c-0.194-3.851-0.563-8.115-0.598-12.754
				c0.006-0.58,0.014-1.166,0.021-1.757l0.012-0.892c0.004-0.123,0-0.359,0.01-0.39l0.034-0.451l0.024-0.286
				c0.001-0.059,0.024-0.122,0.046-0.183l0.061-0.188c0.021-0.048,0.032-0.061,0.066-0.1c0.069-0.037,0.145-0.031,0.273,0.088
				c0.137,0.086,0.34,0.292,0.61,0.443c0.128,0.076,0.263,0.158,0.41,0.195c0.105,0.047,0.257,0.071,0.348,0.07
				c0.185,0.009,0.262-0.051,0.253-0.133c-0.03-0.137-0.443-0.282-0.881-0.298l-0.351-0.008l-0.622,0.014l-1.103-0.007
				c-0.716-0.013-1.424-0.04-2.139-0.077c-2.87-0.178-5.767-0.416-9.089-1.286c-0.84-0.234-1.71-0.508-2.682-0.955
				c-0.954-0.479-2.11-1.016-3.35-2.578c-0.144-0.174-0.296-0.423-0.434-0.666c-0.136-0.254-0.269-0.468-0.374-0.771
				c-0.225-0.575-0.372-1.174-0.409-1.805c-0.001-0.336-0.047,0.091,0.001-0.87l0.015-0.138l0.014-0.138
				c0.006-0.046-0.001-0.046,0.046-0.309c0.073-0.399,0.184-0.8,0.325-1.181c0.079-0.219,0.127-0.297,0.19-0.431l0.192-0.363
				c0.272-0.514,0.552-0.826,0.862-1.209c0.274-0.283,0.603-0.622,0.871-0.824c0.283-0.23,0.572-0.446,0.831-0.605
				c0.275-0.184,0.533-0.332,0.783-0.464c2.014-1.048,3.713-1.462,5.431-1.865c1.701-0.369,3.372-0.625,5.053-0.816
				c0.84-0.095,1.683-0.175,2.533-0.24c0.873-0.061,1.662-0.119,2.696-0.132c1.614-0.007,3.247-0.013,4.896-0.02
				c6.598-0.027,13.47-0.055,20.583-0.084c3.556-0.015,7.173-0.029,10.846-0.044c1.836-0.007,3.687-0.015,5.55-0.022
				c0.932-0.004,1.867-0.008,2.806-0.012l1.41-0.006l0.474,0.005l0.488,0.02l0.805,0.05c2.074,0.157,4.08,0.403,6.196,0.811
				c1.058,0.209,2.135,0.458,3.275,0.81c1.161,0.393,2.336,0.762,3.861,1.783c0.742,0.543,1.706,1.265,2.488,2.839
				c0.378,0.767,0.609,1.776,0.589,2.733c-0.108,1.312-0.047,0.467-0.078,0.807c-0.028,0.14,0.021-0.058-0.07,0.358
				c-0.08,0.341-0.19,0.683-0.326,1.01c-0.157,0.379-0.266,0.556-0.362,0.715c-0.897,1.436-1.751,1.988-2.45,2.487
				c-0.719,0.478-1.334,0.775-1.939,1.054c-2.375,1.041-4.441,1.538-6.569,2.019c-1.057,0.229-2.108,0.426-3.182,0.598
				c-0.539,0.085-1.076,0.164-1.659,0.234c-0.305,0.035-0.561,0.068-1.045,0.098l-0.828,0.033c-0.994,0.037-1.961,0.075-2.632,0.155
				l-0.239,0.027l-0.137,0.029c-0.147,0.016-0.059,0.026-0.042,0.001c-0.03-0.005,0.151-0.045,0.211-0.09l0.311-0.2
				c0.258-0.208,0.489-0.435,0.646-0.711c0.267-0.395,0.199-0.549,0.186-0.26l-0.023,0.161l-0.016,0.263
				c-0.013,0.169-0.026,0.348-0.028,0.58c-0.029,0.832-0.019,1.882-0.018,2.868c0.018,2.044,0.036,4.097,0.054,6.159
				c0.071,8.247,0.144,16.632,0.218,25.12c0.063,4.236,0.021,8.528-0.007,12.838c-0.027,4.31-0.054,8.642-0.081,12.99
				c-0.027,4.35-0.054,8.717-0.081,13.096l-0.011,1.643l-0.003,0.411l-0.001,0.206l-0.017,0.372l-0.046,0.817
				c-0.072,1.107-0.104,2.142-0.209,3.31l-0.46,3.717c-0.206,1.209-0.463,2.389-0.698,3.584c-1.087,4.755-2.9,9.495-5.592,13.793
				c-2.675,4.304-6.219,8.097-10.222,11.104c-4.009,3.017-8.425,5.279-12.914,6.999c-1.126,0.424-2.248,0.875-3.389,1.197
				l-1.705,0.527l-0.853,0.262l-0.214,0.065c0.079-0.016-0.348,0.097-0.376,0.102l-0.4,0.097l-3.199,0.771l-1.599,0.385
				l-1.786,0.317l-3.573,0.619c-1.188,0.185-2.352,0.258-3.528,0.39l-1.761,0.174l-0.88,0.086l-0.889,0.022l-3.554,0.079
				c-1.182,0.062-2.371-0.038-3.558-0.109l-3.556-0.229l-3.53-0.535c-1.175-0.186-2.354-0.341-3.499-0.671
				c-2.303-0.588-4.628-1.091-6.829-1.967l-3.335-1.194l-1.715-0.794l-0.729-0.342c-0.25-0.121-0.46-0.202-0.785-0.397l-1.787-1.039
				c-0.593-0.352-1.201-0.704-1.687-1.086c-1.02-0.766-2.09-1.463-3.01-2.348l-1.418-1.275c-0.465-0.432-0.875-0.92-1.313-1.379
				c-0.424-0.472-0.871-0.923-1.269-1.417l-1.151-1.512c-6.126-8.084-8.109-19.026-5.382-28.603c0.313-1.2,0.794-2.343,1.198-3.507
				l0.08-0.217l0.129-0.3l0.156-0.352l0.313-0.702c0.294-0.589,0.593-1.221,0.901-1.77c1.214-2.186,2.729-4.333,4.689-6.184
				c1.953-1.841,4.306-3.396,6.83-4.354c2.533-0.971,5.09-1.45,7.633-1.518l0.743-0.026l0.371-0.013
				c0.118-0.005,0.239-0.011,0.436,0.002c0.702,0.033,1.405,0.078,2.104,0.134c0.719,0.034,1.355,0.175,2.004,0.307
				c0.647,0.15,1.294,0.232,1.935,0.46c2.593,0.768,5.026,2.162,7.076,3.877c1.951,1.782,3.577,3.787,4.731,5.879l0.357,0.622
				c0.139,0.269,0.299,0.619,0.442,0.926c0.274,0.624,0.619,1.305,0.798,1.893l0.576,1.801l0.394,1.86
				c0.856,4.994-0.189,10.381-3.021,14.519c-1.385,2.071-3.108,3.884-5.058,5.288c-0.477,0.367-0.993,0.657-1.492,0.981
				l-0.757,0.465l-0.783,0.391l-0.784,0.384l-0.394,0.188c-0.154,0.066,0.07-0.017-0.397,0.173l-0.156,0.06l-1.247,0.479
				c-0.824,0.321-1.64,0.642-2.584,0.922l-1.362,0.433l-0.679,0.215c0.21-0.077-0.479,0.167-0.283,0.105
				c0.13-0.051,0.269-0.118,0.418-0.229c0.166-0.105,0.255-0.184,0.446-0.366c0.241-0.233,0.374-0.398,0.662-0.844
				c0.128-0.214,0.194-0.381,0.313-0.658c0.105-0.264,0.182-0.546,0.223-0.825c0.114-0.539,0.063-1.186-0.012-1.583
				c-0.115-0.504-0.207-0.745-0.353-1.031c-0.105-0.218-0.211-0.375-0.3-0.493c-0.305-0.386-0.285-0.293-0.184-0.231
				c0.12,0.088,0.33,0.223,0.565,0.36c1.006,0.571,2.408,1.151,3.76,1.609c0.697,0.236,1.342,0.428,2.067,0.621
				c0.805,0.216,1.605,0.43,2.402,0.644l1.192,0.319l0.572,0.151l0.402,0.091c0.285,0.052,0.494,0.156,0.838,0.18l0.488,0.052
				c0.157,0.017,0.431,0.066,0.64,0.097c1.634,0.266,3.25,0.528,4.848,0.788c0.66,0.075,1.325,0.194,1.967,0.225l0.964,0.076
				l0.872,0.006c1.12-0.019,2.022-0.149,2.565-0.38c0.537-0.232,0.986-0.567,1.577-1.244c0.578-0.632,1.186-1.641,1.764-2.695
				c0.578-1.083,1.136-2.249,1.674-3.452l0.401-0.902l0.1-0.224l0.05-0.112c-0.029,0.076,0.136-0.329-0.054,0.143l0.178-0.48
				c0.236-0.638,0.471-1.271,0.704-1.9l0.174-0.47c0.054-0.152,0.063-0.255,0.098-0.385l0.177-0.732
				c0.113-0.501,0.265-0.93,0.364-1.476c0.162-1.133,0.435-2.185,0.509-3.334c0.121-1.121,0.235-2.228,0.271-3.365
				c0.072-1.111,0.097-2.242,0.108-3.36c0.013-4.617,0.024-8.857,0.034-12.687c0.048-15.395,0.075-24.191,0.075-24.191V-731.247z
				 M1200.949-731.203c0,0,0,8.797-0.001,24.191c0.001,3.854,0.002,8.122,0.004,12.767c-0.01,1.172-0.031,2.371-0.105,3.603
				c-0.035,1.227-0.156,2.485-0.292,3.768c-0.084,1.282-0.389,2.584-0.586,3.91c-0.122,0.665-0.33,1.349-0.496,2.031
				c-0.188,0.668-0.328,1.412-0.582,2.01c-0.23,0.629-0.463,1.264-0.698,1.902l-0.176,0.48l-0.238,0.551l-0.422,0.958
				c-0.568,1.281-1.18,2.581-1.874,3.89c-0.714,1.302-1.478,2.635-2.557,3.877c-1.045,1.24-2.431,2.395-4.074,3.075
				c-1.645,0.683-3.37,0.865-5.024,0.903l-1.243-0.007l-1.221-0.088c-0.82-0.042-1.627-0.177-2.447-0.274
				c-1.547-0.248-3.112-0.498-4.694-0.751c-0.368-0.068-0.796-0.113-1.226-0.159c-0.424-0.034-0.865-0.174-1.299-0.259
				c-0.909-0.193-1.629-0.413-2.447-0.621c-0.797-0.211-1.599-0.423-2.404-0.636c-0.829-0.216-1.679-0.465-2.505-0.743
				c-1.661-0.566-3.302-1.208-4.943-2.12c-0.821-0.5-1.645-0.93-2.497-1.993c-0.206-0.296-0.433-0.635-0.542-1.183
				c-0.127-0.512-0.005-1.241,0.289-1.676c0.285-0.477,0.605-0.717,0.901-0.937c0.279-0.182,0.565-0.335,0.862-0.458
				c0.312-0.131,0.384-0.15,0.709-0.263l0.612-0.194l1.228-0.39c0.819-0.237,1.646-0.564,2.475-0.89l1.246-0.483
				c0.291-0.117,0.711-0.346,1.063-0.513l0.554-0.271l0.519-0.328c0.339-0.228,0.707-0.419,1.028-0.674
				c1.332-0.96,2.464-2.182,3.381-3.549c1.872-2.733,2.531-6.247,1.966-9.605l-0.265-1.257l-0.401-1.23
				c-0.121-0.42-0.329-0.766-0.483-1.155c-0.087-0.191-0.158-0.377-0.256-0.575l-0.359-0.621c-0.859-1.566-2.013-2.913-3.282-4.101
				c-1.346-1.092-2.857-1.976-4.551-2.476c-0.409-0.158-0.864-0.192-1.294-0.297c-0.436-0.09-0.873-0.198-1.307-0.203l-1.305-0.104
				c-0.458-0.016-0.979,0.028-1.467,0.039c-1.827,0.045-3.656,0.408-5.344,1.059c-1.699,0.646-3.229,1.674-4.57,2.932
				c-2.659,2.55-4.483,6.145-5.535,9.88c-2.102,7.492-0.57,16.095,4.329,22.518l0.914,1.201c0.315,0.392,0.679,0.745,1.016,1.12
				c0.35,0.363,0.669,0.757,1.042,1.097l1.134,1.008c0.725,0.711,1.593,1.248,2.399,1.864c0.814,0.612,1.694,1.032,2.535,1.568
				c0.882,0.468,1.997,0.946,2.824,1.343l2.967,1.046c1.955,0.785,4.022,1.207,6.064,1.731c1.014,0.297,2.064,0.425,3.108,0.586
				l3.137,0.481l3.176,0.202c1.06,0.066,2.118,0.164,3.185,0.103l3.196-0.066l0.8-0.017l0.798-0.079l1.597-0.159
				c1.062-0.119,2.137-0.18,3.189-0.345l3.146-0.541l1.575-0.268l1.599-0.383l3.2-0.767c1.991-0.57,4.117-1.164,6.088-1.954
				c4.001-1.509,7.831-3.462,11.226-5.991c3.397-2.52,6.331-5.626,8.578-9.184c2.257-3.553,3.825-7.528,4.8-11.651
				c0.208-1.04,0.444-2.077,0.631-3.116l0.415-3.121c0.107-1.064,0.151-2.173,0.23-3.256l0.053-0.817
				c0.013-0.176,0.01-0.518,0.016-0.769l0.023-1.633c0.061-4.354,0.12-8.694,0.181-13.018c0.06-4.324,0.12-8.63,0.18-12.915
				c0.061-4.285,0.135-8.547,0.105-12.793c-0.008-8.488-0.016-16.873-0.022-25.12c-0.002-2.062-0.004-4.115-0.006-6.159
				c0.008-1.034,0-2.044,0.046-3.121c0.006-0.262,0.025-0.539,0.05-0.82c0.017-0.272,0.046-0.559,0.098-0.864
				c0.074-0.573,0.249-1.278,0.656-1.993c0.442-0.77,1.266-1.29,1.936-1.532c0.672-0.233,1.275-0.33,1.823-0.387
				c1.109-0.123,2.129-0.145,3.133-0.182l0.726-0.025c0.174-0.01,0.421-0.035,0.65-0.062c0.469-0.055,0.948-0.123,1.426-0.197
				c0.957-0.149,1.912-0.325,2.854-0.525c1.873-0.405,3.752-0.891,5.359-1.601c0.394-0.178,0.777-0.369,1.081-0.575
				c0.306-0.195,0.542-0.433,0.584-0.515c0.046-0.059-0.049,0.07-0.024,0.131c0.004,0.063,0.019-0.086,0.027-0.119
				c-0.003,0.032,0.047-0.327,0.002,0.026c-0.012-0.006,0.008,0.002-0.016-0.033c-0.023-0.065-0.2-0.275-0.478-0.463
				c-0.563-0.394-1.396-0.723-2.227-0.991c-0.848-0.264-1.736-0.477-2.636-0.657c-1.801-0.355-3.654-0.591-5.475-0.734
				c-0.469-0.033-0.884-0.064-1.294-0.063l-1.41,0c-0.938,0-1.874,0-2.806,0.001c-1.863,0-3.714,0.001-5.55,0.001
				c-3.673,0.001-7.29,0.001-10.847,0.002c-7.112,0.002-13.985,0.003-20.583,0.005c-1.649,0-3.281,0.001-4.896,0.001
				c-1.496,0.024-3.103,0.156-4.618,0.319c-1.53,0.168-3.03,0.396-4.469,0.703c-1.425,0.313-2.834,0.713-3.928,1.292
				c-0.525,0.278-0.987,0.646-1.075,0.862c-0.005,0.018-0.044,0.066-0.033,0.054c0.013-0.015,0.014-0.038,0.002-0.06
				c-0.008-0.035-0.013,0.029-0.017,0.074l-0.015,0.138l-0.015,0.138c0.017-0.278,0.012-0.065,0.017-0.122
				c-0.013,0.057,0.024,0.102,0.097,0.22c0.172,0.234,0.633,0.567,1.173,0.811c0.544,0.253,1.161,0.459,1.792,0.634
				c2.552,0.687,5.278,0.959,7.879,1.119c0.652,0.036,1.301,0.063,1.939,0.077l0.942,0.01l0.979-0.017
				c0.721,0.003,1.454,0.02,2.268,0.212c0.789,0.183,1.736,0.577,2.41,1.352c0.673,0.762,0.958,1.639,1.11,2.379
				c0.154,0.743,0.177,1.458,0.19,2.112c-0.002,1.212-0.005,2.4-0.007,3.565c-0.011,4.639-0.02,8.9-0.028,12.749
				c-0.035,15.395-0.055,24.191-0.055,24.191V-731.203z"/>
		</g>
	</g>
	
		<circle fill-rule="evenodd" clip-rule="evenodd" fill="#222831" stroke="#280822" stroke-miterlimit="10" cx="1220.592" cy="414.086" r="92.004"/>
	<g>
		<path fill-rule="evenodd" clip-rule="evenodd" fill="#909A9E" d="M1216.449,399.797c0-13.322-0.145-26.646,0.09-39.964
			c0.068-3.901-0.949-5.231-4.961-5.075c-2.072,0.081-15.837-0.276-15.828-4.383c0.009-4.1,13.385-4.847,15.5-4.875
			c15.316-0.211,31.057-0.102,46.375-0.012c1.645,0.01,13.668,0.958,13.502,4.512c-0.146,3.095-11.928,4.818-13.465,4.868
			c-6.955,0.222-6.935,0.156-6.963,7.374c-0.094,24.141,0.338,48.301-0.471,72.418c-0.721,21.494-11.7,34.762-32.702,40.471
			c-14.026,3.813-28.286,4.158-42.147-1.488c-14.666-5.975-21.924-22.373-15.984-36.648c2.704-6.498,7.303-11.121,14.801-11.786
			c6.287-0.558,11.43,1.429,14.987,6.915c5.474,8.441,2.45,18.826-6.79,22.8c-2.586,1.112-3.209,1.205-5.893,2.078
			c-5.016,1.633,2.207,4.991,7.375,6.374c8.875,2.375,4.125,1.063,9.625,2.063c12.611,2.293,15.188-0.063,20.099-11.469
			c3.343-7.764,2.841-16.358,2.849-24.699C1216.455,419.445,1216.449,409.621,1216.449,399.797z"/>
		<path fill="#ACF9EF" d="M1211.5,399.753c0,0,0.024-2.198,0.069-6.322c0.034-2.062,0.044-4.604,0.027-7.594
			c-0.003-1.495-0.006-3.102-0.01-4.815c-0.026-1.714-0.12-3.536-0.183-5.461c-0.194-3.851-0.563-8.115-0.598-12.754
			c0.006-0.58,0.014-1.166,0.021-1.758l0.012-0.892c0.004-0.122,0-0.358,0.01-0.389l0.034-0.452l0.024-0.285
			c0.001-0.059,0.024-0.122,0.046-0.183l0.061-0.188c0.021-0.048,0.032-0.062,0.066-0.1c0.069-0.037,0.145-0.03,0.273,0.088
			c0.137,0.087,0.34,0.292,0.61,0.443c0.128,0.076,0.263,0.158,0.41,0.195c0.105,0.047,0.257,0.071,0.348,0.069
			c0.185,0.01,0.262-0.051,0.253-0.133c-0.03-0.137-0.443-0.281-0.881-0.298l-0.351-0.008l-0.622,0.014l-1.103-0.007
			c-0.716-0.014-1.424-0.04-2.139-0.077c-2.87-0.178-5.767-0.416-9.089-1.286c-0.84-0.233-1.71-0.508-2.682-0.955
			c-0.954-0.479-2.11-1.016-3.35-2.577c-0.144-0.174-0.296-0.423-0.434-0.666c-0.136-0.254-0.269-0.469-0.374-0.771
			c-0.225-0.574-0.372-1.174-0.409-1.805c-0.001-0.336-0.047,0.091,0.001-0.87l0.015-0.138l0.014-0.138
			c0.006-0.047-0.001-0.046,0.046-0.31c0.073-0.398,0.184-0.8,0.325-1.181c0.079-0.219,0.127-0.297,0.19-0.431l0.192-0.363
			c0.272-0.514,0.552-0.826,0.862-1.209c0.274-0.283,0.603-0.622,0.871-0.823c0.283-0.23,0.572-0.446,0.831-0.606
			c0.275-0.184,0.533-0.331,0.783-0.464c2.014-1.049,3.713-1.462,5.431-1.865c1.701-0.368,3.372-0.624,5.053-0.815
			c0.84-0.096,1.683-0.176,2.533-0.24c0.873-0.062,1.662-0.12,2.696-0.133c1.614-0.006,3.247-0.013,4.896-0.02
			c6.598-0.027,13.47-0.055,20.583-0.084c3.556-0.015,7.173-0.029,10.846-0.044c1.836-0.008,3.687-0.016,5.55-0.023
			c0.932-0.004,1.867-0.007,2.806-0.011l1.41-0.006l0.474,0.005l0.488,0.02l0.805,0.05c2.074,0.156,4.08,0.403,6.196,0.811
			c1.058,0.209,2.135,0.458,3.275,0.81c1.161,0.393,2.336,0.762,3.861,1.783c0.742,0.544,1.706,1.265,2.488,2.839
			c0.378,0.767,0.609,1.776,0.589,2.733c-0.108,1.312-0.047,0.467-0.078,0.807c-0.028,0.14,0.021-0.058-0.07,0.358
			c-0.08,0.341-0.19,0.684-0.326,1.01c-0.157,0.379-0.266,0.557-0.362,0.716c-0.897,1.436-1.751,1.987-2.45,2.487
			c-0.719,0.478-1.334,0.775-1.939,1.054c-2.375,1.041-4.441,1.538-6.569,2.019c-1.057,0.229-2.108,0.426-3.182,0.598
			c-0.539,0.085-1.076,0.164-1.659,0.234c-0.305,0.035-0.561,0.068-1.045,0.098l-0.828,0.032c-0.994,0.037-1.961,0.075-2.632,0.156
			l-0.239,0.027l-0.137,0.029c-0.147,0.016-0.059,0.025-0.042,0.001c-0.03-0.005,0.151-0.045,0.211-0.09l0.311-0.199
			c0.258-0.209,0.489-0.436,0.646-0.712c0.267-0.395,0.199-0.549,0.186-0.26l-0.023,0.16l-0.016,0.264
			c-0.013,0.169-0.026,0.348-0.028,0.579c-0.029,0.832-0.019,1.882-0.018,2.868c0.018,2.044,0.036,4.098,0.054,6.159
			c0.071,8.247,0.144,16.632,0.218,25.12c0.063,4.236,0.021,8.528-0.007,12.838c-0.027,4.311-0.054,8.642-0.081,12.99
			c-0.027,4.35-0.054,8.717-0.081,13.097l-0.011,1.643l-0.003,0.411l-0.001,0.205l-0.017,0.372l-0.046,0.817
			c-0.072,1.106-0.104,2.142-0.209,3.31l-0.46,3.718c-0.206,1.21-0.463,2.389-0.698,3.585c-1.087,4.754-2.9,9.494-5.592,13.793
			c-2.675,4.305-6.219,8.097-10.222,11.104c-4.009,3.017-8.425,5.279-12.914,6.999c-1.126,0.424-2.248,0.874-3.389,1.197
			l-1.705,0.527l-0.853,0.263l-0.214,0.065c0.079-0.017-0.348,0.097-0.376,0.102l-0.4,0.096l-3.199,0.771l-1.599,0.385l-1.786,0.317
			l-3.573,0.619c-1.188,0.186-2.352,0.259-3.528,0.39l-1.761,0.175l-0.88,0.086l-0.889,0.022l-3.554,0.078
			c-1.182,0.062-2.371-0.038-3.558-0.109l-3.556-0.228l-3.53-0.535c-1.175-0.186-2.354-0.341-3.499-0.671
			c-2.303-0.589-4.628-1.091-6.829-1.967l-3.335-1.194l-1.715-0.794l-0.729-0.343c-0.25-0.12-0.46-0.202-0.785-0.396l-1.787-1.039
			c-0.593-0.352-1.201-0.704-1.687-1.086c-1.02-0.766-2.09-1.464-3.01-2.348l-1.418-1.275c-0.465-0.432-0.875-0.919-1.313-1.379
			c-0.424-0.473-0.871-0.923-1.269-1.416l-1.151-1.512c-6.126-8.085-8.109-19.026-5.382-28.604c0.313-1.199,0.794-2.343,1.198-3.506
			l0.08-0.217l0.129-0.301l0.156-0.351l0.313-0.702c0.294-0.589,0.593-1.221,0.901-1.77c1.214-2.186,2.729-4.333,4.689-6.185
			c1.953-1.841,4.306-3.396,6.83-4.354c2.533-0.972,5.09-1.45,7.633-1.519l0.743-0.026l0.371-0.013
			c0.118-0.006,0.239-0.011,0.436,0.002c0.702,0.032,1.405,0.077,2.104,0.135c0.719,0.033,1.355,0.174,2.004,0.307
			c0.647,0.15,1.294,0.232,1.935,0.46c2.593,0.768,5.026,2.161,7.076,3.877c1.951,1.782,3.577,3.787,4.731,5.879l0.357,0.622
			c0.139,0.269,0.299,0.618,0.442,0.927c0.274,0.623,0.619,1.305,0.798,1.893l0.576,1.801l0.394,1.86
			c0.856,4.994-0.189,10.381-3.021,14.52c-1.385,2.07-3.108,3.883-5.058,5.287c-0.477,0.367-0.993,0.657-1.492,0.981l-0.757,0.465
			l-0.783,0.391l-0.784,0.384l-0.394,0.188c-0.154,0.066,0.07-0.017-0.397,0.173l-0.156,0.06l-1.247,0.48
			c-0.824,0.32-1.64,0.642-2.584,0.921l-1.362,0.433l-0.679,0.215c0.21-0.076-0.479,0.167-0.283,0.105
			c0.13-0.051,0.269-0.117,0.418-0.229c0.166-0.105,0.255-0.185,0.446-0.365c0.241-0.233,0.374-0.398,0.662-0.845
			c0.128-0.214,0.194-0.381,0.313-0.658c0.105-0.265,0.182-0.546,0.223-0.825c0.114-0.539,0.063-1.187-0.012-1.582
			c-0.115-0.504-0.207-0.745-0.353-1.031c-0.105-0.219-0.211-0.375-0.3-0.493c-0.305-0.387-0.285-0.294-0.184-0.231
			c0.12,0.088,0.33,0.223,0.565,0.359c1.006,0.571,2.408,1.151,3.76,1.61c0.697,0.236,1.342,0.428,2.067,0.62
			c0.805,0.216,1.605,0.43,2.402,0.644l1.192,0.319l0.572,0.15l0.402,0.092c0.285,0.052,0.494,0.155,0.838,0.18l0.488,0.052
			c0.157,0.017,0.431,0.065,0.64,0.097c1.634,0.266,3.25,0.528,4.848,0.788c0.66,0.075,1.325,0.195,1.967,0.226l0.964,0.076
			l0.872,0.006c1.12-0.019,2.022-0.149,2.565-0.38c0.537-0.232,0.986-0.567,1.577-1.244c0.578-0.632,1.186-1.641,1.764-2.694
			c0.578-1.082,1.136-2.249,1.674-3.452l0.401-0.902l0.1-0.225l0.05-0.111c-0.029,0.076,0.136-0.329-0.054,0.142l0.178-0.479
			c0.236-0.639,0.471-1.271,0.704-1.9l0.174-0.47c0.054-0.152,0.063-0.255,0.098-0.385l0.177-0.732
			c0.113-0.501,0.265-0.93,0.364-1.476c0.162-1.134,0.435-2.185,0.509-3.334c0.121-1.12,0.235-2.228,0.271-3.365
			c0.072-1.11,0.097-2.241,0.108-3.359c0.013-4.617,0.024-8.857,0.034-12.688c0.048-15.395,0.075-24.191,0.075-24.191V399.753z
			 M1217.949,399.798c0,0,0,8.797-0.001,24.191c0.001,3.854,0.002,8.121,0.004,12.767c-0.01,1.172-0.031,2.37-0.105,3.603
			c-0.035,1.228-0.156,2.485-0.292,3.768c-0.084,1.282-0.389,2.585-0.586,3.911c-0.122,0.664-0.33,1.349-0.496,2.03
			c-0.188,0.668-0.328,1.411-0.582,2.01c-0.23,0.629-0.463,1.264-0.698,1.902l-0.176,0.48l-0.238,0.552l-0.422,0.957
			c-0.568,1.281-1.18,2.581-1.874,3.891c-0.714,1.301-1.478,2.635-2.557,3.877c-1.045,1.24-2.431,2.395-4.074,3.075
			c-1.645,0.683-3.37,0.865-5.024,0.903l-1.243-0.008l-1.221-0.089c-0.82-0.042-1.627-0.177-2.447-0.273
			c-1.547-0.247-3.112-0.498-4.694-0.752c-0.368-0.067-0.796-0.112-1.226-0.158c-0.424-0.033-0.865-0.174-1.299-0.259
			c-0.909-0.192-1.629-0.413-2.447-0.621c-0.797-0.211-1.599-0.423-2.404-0.636c-0.829-0.216-1.679-0.465-2.505-0.743
			c-1.661-0.565-3.302-1.207-4.943-2.12c-0.821-0.499-1.645-0.93-2.497-1.992c-0.206-0.297-0.433-0.635-0.542-1.183
			c-0.127-0.512-0.005-1.241,0.289-1.677c0.285-0.477,0.605-0.717,0.901-0.937c0.279-0.181,0.565-0.335,0.862-0.457
			c0.312-0.131,0.384-0.149,0.709-0.263l0.612-0.195l1.228-0.39c0.819-0.236,1.646-0.563,2.475-0.89l1.246-0.483
			c0.291-0.117,0.711-0.347,1.063-0.513l0.554-0.271l0.519-0.328c0.339-0.228,0.707-0.42,1.028-0.674
			c1.332-0.961,2.464-2.183,3.381-3.549c1.872-2.733,2.531-6.247,1.966-9.605l-0.265-1.258l-0.401-1.229
			c-0.121-0.421-0.329-0.766-0.483-1.156c-0.087-0.191-0.158-0.377-0.256-0.574l-0.359-0.622c-0.859-1.565-2.013-2.912-3.282-4.101
			c-1.346-1.092-2.857-1.976-4.551-2.476c-0.409-0.157-0.864-0.191-1.294-0.297c-0.436-0.091-0.873-0.198-1.307-0.203l-1.305-0.104
			c-0.458-0.017-0.979,0.028-1.467,0.039c-1.827,0.046-3.656,0.408-5.344,1.06c-1.699,0.646-3.229,1.673-4.57,2.932
			c-2.659,2.55-4.483,6.144-5.535,9.879c-2.102,7.492-0.57,16.095,4.329,22.519l0.914,1.201c0.315,0.393,0.679,0.745,1.016,1.12
			c0.35,0.363,0.669,0.757,1.042,1.097l1.134,1.009c0.725,0.711,1.593,1.248,2.399,1.863c0.814,0.612,1.694,1.033,2.535,1.568
			c0.882,0.468,1.997,0.946,2.824,1.343l2.967,1.047c1.955,0.784,4.022,1.207,6.064,1.73c1.014,0.297,2.064,0.425,3.108,0.586
			l3.137,0.481l3.176,0.202c1.06,0.065,2.118,0.163,3.185,0.103l3.196-0.066l0.8-0.017l0.798-0.079l1.597-0.158
			c1.062-0.119,2.137-0.181,3.189-0.345l3.146-0.541l1.575-0.269l1.599-0.382l3.2-0.768c1.991-0.569,4.117-1.163,6.088-1.953
			c4.001-1.509,7.831-3.462,11.226-5.99c3.397-2.521,6.331-5.627,8.578-9.185c2.257-3.553,3.825-7.528,4.8-11.65
			c0.208-1.04,0.444-2.077,0.631-3.117l0.415-3.12c0.107-1.063,0.151-2.173,0.23-3.256l0.053-0.817
			c0.013-0.177,0.01-0.518,0.016-0.769l0.023-1.634c0.061-4.354,0.12-8.694,0.181-13.018c0.06-4.324,0.12-8.631,0.18-12.916
			c0.061-4.284,0.135-8.547,0.105-12.793c-0.008-8.488-0.016-16.872-0.022-25.119c-0.002-2.063-0.004-4.115-0.006-6.159
			c0.008-1.033,0-2.044,0.046-3.12c0.006-0.262,0.025-0.54,0.05-0.82c0.017-0.272,0.046-0.559,0.098-0.864
			c0.074-0.573,0.249-1.278,0.656-1.993c0.442-0.77,1.266-1.289,1.936-1.532c0.672-0.232,1.275-0.329,1.823-0.387
			c1.109-0.123,2.129-0.145,3.133-0.182l0.726-0.025c0.174-0.01,0.421-0.034,0.65-0.062c0.469-0.056,0.948-0.124,1.426-0.197
			c0.957-0.149,1.912-0.325,2.854-0.525c1.873-0.405,3.752-0.892,5.359-1.601c0.394-0.178,0.777-0.369,1.081-0.575
			c0.306-0.195,0.542-0.433,0.584-0.515c0.046-0.06-0.049,0.069-0.024,0.131c0.004,0.063,0.019-0.086,0.027-0.119
			c-0.003,0.032,0.047-0.326,0.002,0.027c-0.012-0.007,0.008,0.002-0.016-0.033c-0.023-0.065-0.2-0.275-0.478-0.464
			c-0.563-0.394-1.396-0.723-2.227-0.99c-0.848-0.264-1.736-0.477-2.636-0.656c-1.801-0.355-3.654-0.592-5.475-0.734
			c-0.469-0.033-0.884-0.063-1.294-0.063l-1.41,0.001c-0.938,0-1.874,0-2.806,0c-1.863,0.001-3.714,0.001-5.55,0.002
			c-3.673,0.001-7.29,0.002-10.847,0.003c-7.112,0.001-13.985,0.003-20.583,0.005c-1.649,0-3.281,0.001-4.896,0.001
			c-1.496,0.024-3.103,0.156-4.618,0.319c-1.53,0.168-3.03,0.396-4.469,0.703c-1.425,0.313-2.834,0.713-3.928,1.291
			c-0.525,0.278-0.987,0.646-1.075,0.862c-0.005,0.018-0.044,0.066-0.033,0.054c0.013-0.015,0.014-0.038,0.002-0.06
			c-0.008-0.035-0.013,0.028-0.017,0.074l-0.015,0.138l-0.015,0.138c0.017-0.279,0.012-0.065,0.017-0.123
			c-0.013,0.058,0.024,0.102,0.097,0.22c0.172,0.234,0.633,0.568,1.173,0.812c0.544,0.253,1.161,0.459,1.792,0.634
			c2.552,0.688,5.278,0.959,7.879,1.118c0.652,0.037,1.301,0.063,1.939,0.077l0.942,0.01l0.979-0.017
			c0.721,0.003,1.454,0.02,2.268,0.212c0.789,0.183,1.736,0.577,2.41,1.352c0.673,0.763,0.958,1.639,1.11,2.38
			c0.154,0.742,0.177,1.458,0.19,2.111c-0.002,1.212-0.005,2.4-0.007,3.565c-0.011,4.639-0.02,8.899-0.028,12.748
			c-0.035,15.396-0.055,24.192-0.055,24.192V399.798z"/>
	</g>
	<g>
		<path fill="#909A9E" stroke="#000000" stroke-miterlimit="10" d="M1129,76.5h100c0,0,6.25,1,7.25,6.75l1.25,56.5
			c0,0-3,36.125-38.25,39.375l-0.25-14.813l-3.75-4.364l-33.375,0.067l-4.375,4.484V179c0,0-30-0.25-39-36.75V84
			C1118.5,84,1122.75,76.5,1129,76.5z"/>
		<path fill="#BFD8DB" stroke="#969094" stroke-miterlimit="10" d="M1135.5,108.5h85V119c0,0,0.375,13.321-15,27.125
			c0,0-24.813,19.5-54.563,0c0,0-12.438-9.125-15.438-26.25V108.5z"/>
		<path fill="#909A9E" stroke="#000000" stroke-miterlimit="10" d="M1147,69.5h63c0,0-1.5-11.167-19.333-16.5
			c0,0-10.667-2.25-24,0.25C1166.667,53.25,1153.166,56.5,1147,69.5z"/>
		<path fill="#909A9E" stroke="#000000" stroke-miterlimit="10" d="M1176.438,46.5h3.063V37c0,0,7.667-3.833,8.167-9.5
			c0,0,1.208-9.938-8.25-9.333c0,0-10.979-0.729-10.375,8.5c0,0,1.833,8.271,7.354,10.986L1176.438,46.5z"/>
		<path fill="#909A9E" stroke="#000000" stroke-miterlimit="10" d="M1241.5,113.5V141c0,0,11.084-0.625,11.417-9.104
			s0.75-18.396,0.75-18.396H1241.5z"/>
		<path fill="#909A9E" stroke="#000000" stroke-miterlimit="10" d="M1113.5,112.5V140c0,0-9.996-0.625-10.329-9.104
			s0.338-18.396,0.338-18.396H1113.5z"/>
		<rect x="1162.5" y="167.5" fill="#909A9E" stroke="#000000" stroke-miterlimit="10" width="30" height="14"/>
		<path fill="#909A9E" stroke="#000000" stroke-miterlimit="10" d="M1125.167,167.334c0,0,14.333,17.166,32.167,18.332
			c0,0,36.666,1.667,42.166,0c0,0,23.5-4.499,32.334-18.332c0,0,17.583,42.416,0,76.666c0,0-0.771-4.313-2.334-6.438
			c0,0-8.313,17.625-18,17l0.063-12.688c0,0-12.438,18.75-27.438,20.5c0,0-1.5-12.375-5.5-11.625c0,0-4.125-1.25-5.5,11.625
			c0,0-17.5-5.125-28.125-20.125l0.031,13.156c0,0-13.156-5.406-17.156-17.406c0,0-2.791,2-2.708,6.875
			C1125.167,244.875,1107.959,199.008,1125.167,167.334z"/>
		<path fill="#909A9E" stroke="#000000" stroke-miterlimit="10" d="M1119.5,165.75c0,0-16.75,29-5,62.75c0,0-15.416-3.5-18.25-23.25
			c0,0-0.813-17.813,4-24.75C1100.25,180.5,1108.418,166.673,1119.5,165.75z"/>
		<path fill="#909A9E" stroke="#000000" stroke-miterlimit="10" d="M1237.198,165.75c0,0,16.75,29,5,62.75
			c0,0,15.417-3.5,18.25-23.25c0,0,0.813-17.813-4-24.75C1256.448,180.5,1248.279,166.673,1237.198,165.75z"/>
		
			<line fill="none" stroke="#FFFFFF" stroke-width="3" stroke-linecap="round" stroke-miterlimit="10" x1="1165" y1="26.5" x2="1153" y2="26.5"/>
		
			<line fill="none" stroke="#FFFFFF" stroke-width="3" stroke-linecap="round" stroke-miterlimit="10" x1="1205" y1="26.5" x2="1193" y2="26.5"/>
		
			<line fill="none" stroke="#FFFFFF" stroke-width="3" stroke-linecap="round" stroke-miterlimit="10" x1="1197.242" y1="8.257" x2="1188.758" y2="16.743"/>
		
			<line fill="none" stroke="#FFFFFF" stroke-width="3" stroke-linecap="round" stroke-miterlimit="10" x1="1168.242" y1="36.257" x2="1159.758" y2="44.743"/>
		
			<line fill="none" stroke="#FFFFFF" stroke-width="3" stroke-linecap="round" stroke-miterlimit="10" x1="1178.5" y1="1" x2="1178.5" y2="13"/>
		
			<line fill="none" stroke="#FFFFFF" stroke-width="3" stroke-linecap="round" stroke-miterlimit="10" x1="1160.258" y1="8.757" x2="1168.742" y2="17.243"/>
		
			<line fill="none" stroke="#FFFFFF" stroke-width="3" stroke-linecap="round" stroke-miterlimit="10" x1="1189.258" y1="35.757" x2="1197.742" y2="44.243"/>
		<path fill="#E5E1E3" d="M1211.094,108.031c-8.147,0.332-16.492-1.226-24.785,4.705c-5.877,4.203-10.123,10.677-17.422,13.014
			c-0.672,0.215-1.076,1.203-1.635,1.805l-15.1,16.834c-0.309,0.29-1.081,0.789-1.39,1.079c6.344,5.12,13.837,8.468,22.194,9.006
			c0.535-2.073,1.691-3.555,3.336-5.109c6.642-6.278,15.746-10.198,19.461-19.344c0.324-0.796,1.479-1.266,2.249-1.885
			c5.058-4.069,9.119-9.073,13.112-14.075C1211.885,113.098,1215.803,107.84,1211.094,108.031z"/>
		<path fill-rule="evenodd" clip-rule="evenodd" fill="#909A9E" stroke="#000000" stroke-miterlimit="10" d="M1340.494,153.037
			c0-13.322-0.145-26.646,0.09-39.963c0.068-3.901-0.949-5.231-4.961-5.075c-2.072,0.081-6.221,2.11-6.211-1.997
			c0.008-4.099,4.111-1.991,6.227-2.02c15.317-0.211,30.639-0.15,45.957-0.06c1.645,0.01,4.475-1.282,4.309,2.272
			c-0.146,3.094-2.66,1.865-4.197,1.914c-6.955,0.222-6.935,0.156-6.963,7.374c-0.094,24.142,0.338,48.301-0.471,72.419
			c-0.721,21.493-11.7,34.761-32.702,40.471c-14.026,3.813-28.286,4.157-42.147-1.489c-14.666-5.975-21.924-22.372-15.984-36.648
			c2.704-6.498,7.303-11.12,14.801-11.786c6.287-0.558,11.43,1.428,14.987,6.915c5.474,8.441,2.45,18.827-6.79,22.801
			c-2.586,1.111-5.322,1.881-8.006,2.755c-5.016,1.632-5.977,5.198-2.105,8.89c5.191,4.951,11.895,5.916,18.592,5.602
			c12.058-0.566,19.142-6.605,22.726-18.2c2.496-8.076,2.841-16.358,2.849-24.699C1340.5,172.686,1340.494,162.862,1340.494,153.037
			z"/>
		<path fill-rule="evenodd" clip-rule="evenodd" fill="#909A9E" stroke="#000000" stroke-miterlimit="10" d="M1634.856,147.077
			c-5.034-11.562-13.608-20.469-26.076-23.844c-14.487-3.922-27.948-1.225-39.16,9.665c-1.176-1.712-0.661-3.402-0.667-4.973
			c-0.047-14.833-0.163-29.668,0.065-44.498c0.059-3.797-1.019-4.769-4.743-4.69c-11.662,0.245-23.334-0.032-34.996,0.211
			c-1.926,0.04-5.844-2.184-5.736,2.146c0.104,4.177,3.981,1.997,5.854,1.909c4.403-0.207,5.803,0.935,5.782,5.658
			c-0.2,45.999-0.133,91.998-0.063,137.997c0.002,1.501-1.23,4.026,1.873,4.208c3.04,0.178,2.143-2.27,2.398-3.904
			c1.762-11.216,9.529-14.824,19.166-8.773c2.953,1.855,5.813,3.928,8.453,6.205c20.964,18.084,57.879,4.433,67.232-14.964
			C1644.164,188.847,1643.877,167.796,1634.856,147.077z M1598.358,218.657c-1.854,3.032-4.149,5.606-7.271,7.363
			c-6.709,3.773-14.265,1.542-17.839-5.288c-2.846-5.439-3.873-11.408-3.963-17.385c-0.301-19.807-0.434-39.62-0.254-59.428
			c0.054-5.893,4.392-9.611,9.359-11.859c5.509-2.493,10.78-1.222,15.189,2.973c8.332,7.929,11.1,18.318,12.5,29.188
			c0.657,5.105,0.697,10.291,0.926,13.961C1606.477,193.186,1605.705,206.646,1598.358,218.657z"/>
		<path fill-rule="evenodd" clip-rule="evenodd" fill="#909A9E" stroke="#000000" stroke-miterlimit="10" d="M1488.072,132.39
			c-12.125-6.46-24.918-9.362-38.533-7.597c-29.599,3.839-49.904,23.166-49.674,54.72c0.016,13.487,3.456,25.679,13.251,35.499
			c14.567,14.602,32.337,20.325,52.45,17.434c22.895-3.293,42.359-16.726,47.487-41.385
			C1517.202,171.111,1511.158,144.69,1488.072,132.39z M1476.197,211.43c-3.366,13.055-11.672,18.801-23.633,16.629
			c-7.558-1.373-11.702-6.639-13.92-13.517c-3.785-11.736-3.787-23.946-4.148-35.686c0.303-10.908,0.6-21.393,2.921-31.702
			c2.349-10.432,7.907-16.894,15.643-18.021c10.406-1.518,18.29,3.146,21.958,13.048c2.455,6.627,3.413,13.566,3.857,20.559
			C1479.912,179.07,1480.328,195.412,1476.197,211.43z"/>
	</g>
	<path fill="#909A9E" stroke="#000000" stroke-miterlimit="10" d="M82,85.5h100c0,0,6.25,1,7.25,6.75l1.25,56.5
		c0,0-3,36.125-38.25,39.375L152,173.313l-3.75-4.364l-33.375,0.067L110.5,173.5V188c0,0-30-0.25-39-36.75V93
		C71.5,93,75.75,85.5,82,85.5z"/>
	<path fill="#BFD8DB" stroke="#969094" stroke-miterlimit="10" d="M88.5,117.5h85V128c0,0,0.375,13.321-15,27.125
		c0,0-24.813,19.5-54.563,0c0,0-12.438-9.125-15.438-26.25V117.5z"/>
	<path fill="#909A9E" stroke="#000000" stroke-miterlimit="10" d="M100,78.5h63c0,0-1.5-11.167-19.333-16.5c0,0-10.667-2.25-24,0.25
		C119.667,62.25,106.166,65.5,100,78.5z"/>
	<path fill="#909A9E" stroke="#000000" stroke-miterlimit="10" d="M129.438,55.5h3.063V46c0,0,7.667-3.833,8.167-9.5
		c0,0,1.208-9.938-8.25-9.333c0,0-10.979-0.729-10.375,8.5c0,0,1.833,8.271,7.354,10.986L129.438,55.5z"/>
	<path fill="#909A9E" stroke="#000000" stroke-miterlimit="10" d="M194.5,122.5V150c0,0,11.084-0.625,11.417-9.104
		s0.75-18.396,0.75-18.396H194.5z"/>
	<path fill="#909A9E" stroke="#000000" stroke-miterlimit="10" d="M66.5,121.5V149c0,0-9.996-0.625-10.329-9.104
		s0.338-18.396,0.338-18.396H66.5z"/>
	<rect x="115.5" y="176.5" fill="#909A9E" stroke="#000000" stroke-miterlimit="10" width="30" height="14"/>
	<path fill="#909A9E" stroke="#000000" stroke-miterlimit="10" d="M78.167,176.334c0,0,14.333,17.166,32.167,18.332
		c0,0,36.666,1.667,42.166,0c0,0,23.5-4.499,32.334-18.332c0,0,17.583,42.416,0,76.666c0,0-0.771-4.313-2.334-6.438
		c0,0-8.313,17.625-18,17l0.063-12.688c0,0-12.438,18.75-27.438,20.5c0,0-1.5-12.375-5.5-11.625c0,0-4.125-1.25-5.5,11.625
		c0,0-17.5-5.125-28.125-20.125l0.031,13.156c0,0-13.156-5.406-17.156-17.406c0,0-2.791,2-2.708,6.875
		C78.167,253.875,60.959,208.008,78.167,176.334z"/>
	<path fill="#909A9E" stroke="#000000" stroke-miterlimit="10" d="M72.5,174.75c0,0-16.75,29-5,62.75c0,0-15.416-3.5-18.25-23.25
		c0,0-0.813-17.813,4-24.75C53.25,189.5,61.418,175.673,72.5,174.75z"/>
	<path fill="#909A9E" stroke="#000000" stroke-miterlimit="10" d="M190.198,174.75c0,0,16.75,29,5,62.75c0,0,15.417-3.5,18.25-23.25
		c0,0,0.813-17.813-4-24.75C209.448,189.5,201.279,175.673,190.198,174.75z"/>
	
		<line fill="none" stroke="#FFFFFF" stroke-width="3" stroke-linecap="round" stroke-miterlimit="10" x1="118" y1="35.5" x2="106" y2="35.5"/>
	
		<line fill="none" stroke="#FFFFFF" stroke-width="3" stroke-linecap="round" stroke-miterlimit="10" x1="158" y1="35.5" x2="146" y2="35.5"/>
	
		<line fill="none" stroke="#FFFFFF" stroke-width="3" stroke-linecap="round" stroke-miterlimit="10" x1="150.242" y1="17.257" x2="141.758" y2="25.743"/>
	
		<line fill="none" stroke="#FFFFFF" stroke-width="3" stroke-linecap="round" stroke-miterlimit="10" x1="121.242" y1="45.257" x2="112.758" y2="53.743"/>
	
		<line fill="none" stroke="#FFFFFF" stroke-width="3" stroke-linecap="round" stroke-miterlimit="10" x1="131.5" y1="10" x2="131.5" y2="22"/>
	
		<line fill="none" stroke="#FFFFFF" stroke-width="3" stroke-linecap="round" stroke-miterlimit="10" x1="113.258" y1="17.757" x2="121.742" y2="26.243"/>
	
		<line fill="none" stroke="#FFFFFF" stroke-width="3" stroke-linecap="round" stroke-miterlimit="10" x1="142.258" y1="44.757" x2="150.742" y2="53.243"/>
	<path fill="#E5E1E3" d="M164.094,117.031c-8.147,0.332-16.492-1.226-24.785,4.705c-5.877,4.203-10.123,10.677-17.422,13.014
		c-0.672,0.215-1.076,1.203-1.635,1.805l-15.1,16.834c-0.309,0.29-1.081,0.789-1.39,1.079c6.344,5.12,13.837,8.468,22.194,9.006
		c0.535-2.073,1.691-3.555,3.336-5.109c6.642-6.278,15.746-10.198,19.461-19.344c0.324-0.796,1.479-1.266,2.249-1.885
		c5.058-4.069,9.119-9.073,13.112-14.075C164.885,122.098,168.803,116.84,164.094,117.031z"/>
</g>
</svg>
