<?xml version="1.0" encoding="utf-8"?>
<!-- Generator: Adobe Illustrator 16.0.3, SVG Export Plug-In . SVG Version: 6.00 Build 0)  -->
<!DOCTYPE svg PUBLIC "-//W3C//DTD SVG 1.1//EN" "http://www.w3.org/Graphics/SVG/1.1/DTD/svg11.dtd">
<svg version="1.1" xmlns="http://www.w3.org/2000/svg" xmlns:xlink="http://www.w3.org/1999/xlink" x="0px" y="0px"
	 width="165.302px" height="263.523px" viewBox="0 0 165.302 263.523" enable-background="new 0 0 165.302 263.523"
	 xml:space="preserve">
<g id="Capa_1">
</g>
<g id="Capa_2">
	<path fill="#909A9E" stroke="#000000" stroke-miterlimit="10" d="M33.302,77h100c0,0,6.25,1,7.25,6.75l1.25,56.5
		c0,0-3,36.125-38.25,39.375l-0.25-14.813l-3.75-4.364l-33.375,0.067L61.802,165v14.5c0,0-30-0.25-39-36.75V84.5
		C22.802,84.5,27.052,77,33.302,77z"/>
	<path fill="#BFD8DB" stroke="#969094" stroke-miterlimit="10" d="M39.802,109h85v10.5c0,0,0.375,13.321-15,27.125
		c0,0-24.813,19.5-54.563,0c0,0-12.438-9.125-15.438-26.25V109z"/>
	<path fill="#909A9E" stroke="#000000" stroke-miterlimit="10" d="M51.302,70h63c0,0-1.5-11.167-19.333-16.5
		c0,0-10.667-2.25-24,0.25C70.969,53.75,57.468,57,51.302,70z"/>
	<path fill="#909A9E" stroke="#000000" stroke-miterlimit="10" d="M80.739,47h3.063v-9.5c0,0,7.667-3.833,8.167-9.5
		c0,0,1.208-9.938-8.25-9.333c0,0-10.979-0.729-10.375,8.5c0,0,1.833,8.271,7.354,10.986L80.739,47z"/>
	<path fill="#909A9E" stroke="#000000" stroke-miterlimit="10" d="M145.802,114v27.5c0,0,11.084-0.625,11.417-9.104
		s0.75-18.396,0.75-18.396H145.802z"/>
	<path fill="#909A9E" stroke="#000000" stroke-miterlimit="10" d="M17.802,113v27.5c0,0-9.996-0.625-10.329-9.104
		S7.811,113,7.811,113H17.802z"/>
	<rect x="66.802" y="168" fill="#909A9E" stroke="#000000" stroke-miterlimit="10" width="30" height="14"/>
	<path fill="#909A9E" stroke="#000000" stroke-miterlimit="10" d="M29.469,167.834c0,0,14.333,17.166,32.167,18.332
		c0,0,36.666,1.667,42.166,0c0,0,23.5-4.499,32.334-18.332c0,0,17.583,42.416,0,76.666c0,0-0.771-4.313-2.334-6.438
		c0,0-8.313,17.625-18,17l0.063-12.688c0,0-12.438,18.75-27.438,20.5c0,0-1.5-12.375-5.5-11.625c0,0-4.125-1.25-5.5,11.625
		c0,0-17.5-5.125-28.125-20.125l0.031,13.156c0,0-13.156-5.406-17.156-17.406c0,0-2.791,2-2.708,6.875
		C29.469,245.375,12.261,199.508,29.469,167.834z"/>
	<path fill="#909A9E" stroke="#000000" stroke-miterlimit="10" d="M23.802,166.25c0,0-16.75,29-5,62.75c0,0-15.416-3.5-18.25-23.25
		c0,0-0.813-17.813,4-24.75C4.552,181,12.72,167.173,23.802,166.25z"/>
	<path fill="#909A9E" stroke="#000000" stroke-miterlimit="10" d="M141.5,166.25c0,0,16.75,29,5,62.75c0,0,15.417-3.5,18.25-23.25
		c0,0,0.813-17.813-4-24.75C160.75,181,152.581,167.173,141.5,166.25z"/>
	
		<line fill="none" stroke="#FFFFFF" stroke-width="3" stroke-linecap="round" stroke-miterlimit="10" x1="69.302" y1="27" x2="57.302" y2="27"/>
	
		<line fill="none" stroke="#FFFFFF" stroke-width="3" stroke-linecap="round" stroke-miterlimit="10" x1="109.302" y1="27" x2="97.302" y2="27"/>
	
		<line fill="none" stroke="#FFFFFF" stroke-width="3" stroke-linecap="round" stroke-miterlimit="10" x1="101.544" y1="8.757" x2="93.06" y2="17.243"/>
	
		<line fill="none" stroke="#FFFFFF" stroke-width="3" stroke-linecap="round" stroke-miterlimit="10" x1="72.544" y1="36.757" x2="64.06" y2="45.243"/>
	
		<line fill="none" stroke="#FFFFFF" stroke-width="3" stroke-linecap="round" stroke-miterlimit="10" x1="82.802" y1="1.5" x2="82.802" y2="13.5"/>
	
		<line fill="none" stroke="#FFFFFF" stroke-width="3" stroke-linecap="round" stroke-miterlimit="10" x1="64.56" y1="9.257" x2="73.044" y2="17.743"/>
	
		<line fill="none" stroke="#FFFFFF" stroke-width="3" stroke-linecap="round" stroke-miterlimit="10" x1="93.56" y1="36.257" x2="102.044" y2="44.743"/>
	<path fill="#E5E1E3" d="M115.396,108.531c-8.147,0.332-16.492-1.226-24.785,4.705c-5.877,4.203-10.123,10.677-17.422,13.014
		c-0.672,0.215-1.076,1.203-1.635,1.805l-15.1,16.834c-0.309,0.29-1.081,0.789-1.39,1.079c6.344,5.12,13.837,8.468,22.194,9.006
		c0.535-2.073,1.691-3.555,3.336-5.109c6.642-6.278,15.746-10.198,19.461-19.344c0.324-0.796,1.479-1.266,2.249-1.885
		c5.058-4.069,9.119-9.073,13.112-14.075C116.187,113.598,120.104,108.34,115.396,108.531z"/>
</g>
</svg>
