<?xml version="1.0" encoding="utf-8"?>
<!-- Generator: Adobe Illustrator 16.0.3, SVG Export Plug-In . SVG Version: 6.00 Build 0)  -->
<!DOCTYPE svg PUBLIC "-//W3C//DTD SVG 1.1//EN" "http://www.w3.org/Graphics/SVG/1.1/DTD/svg11.dtd">
<svg version="1.1" id="Capa_1" xmlns="http://www.w3.org/2000/svg" xmlns:xlink="http://www.w3.org/1999/xlink" x="0px" y="0px"
	 width="53.481px" height="48px" viewBox="23.259 25.999 53.481 48" enable-background="new 23.259 25.999 53.481 48"
	 xml:space="preserve">
<circle fill="#39C1D7" cx="50" cy="50" r="4.8"/>
<path fill="#1F212B" d="M50,55.485c-3.024,0-5.485-2.461-5.485-5.486c0-3.024,2.461-5.485,5.485-5.485s5.485,2.46,5.485,5.485
	C55.485,53.024,53.024,55.485,50,55.485z M50,45.886c-2.269,0-4.114,1.845-4.114,4.114c0,2.269,1.845,4.114,4.114,4.114
	c2.269,0,4.114-1.845,4.114-4.114C54.114,47.731,52.269,45.886,50,45.886z"/>
<path fill="#39C1D7" d="M76.397,50c0-3.686-4.438-6.876-11.325-8.775c1.771-6.922,1.226-12.366-1.938-14.213
	c-1.248-0.729-2.762-0.862-4.499-0.397c-2.618,0.701-5.617,2.749-8.635,5.759c-3.017-3.01-6.017-5.058-8.634-5.759
	c-1.738-0.466-3.251-0.332-4.5,0.397c-3.164,1.847-3.708,7.29-1.938,14.213C28.041,43.124,23.602,46.313,23.602,50
	s4.439,6.876,11.326,8.776c-1.77,6.922-1.225,12.366,1.938,14.213c0.763,0.445,1.624,0.669,2.575,0.669
	c0.605,0,1.248-0.091,1.924-0.271c2.618-0.702,5.618-2.749,8.634-5.759c3.018,3.01,6.017,5.057,8.635,5.759
	c0.676,0.181,1.318,0.271,1.923,0.271c0.952,0,1.813-0.224,2.576-0.669c3.164-1.847,3.708-7.291,1.938-14.213
	C71.959,56.876,76.397,53.686,76.397,50z M59.167,28.601c0.496-0.132,0.957-0.2,1.382-0.2c0.59,0,1.108,0.129,1.548,0.386
	c2.12,1.238,2.553,5.773,0.974,11.938c-2.176-0.49-4.55-0.858-7.072-1.085c-1.48-2.135-3.021-4.078-4.572-5.779
	C54.181,31.1,56.884,29.213,59.167,28.601z M57.374,54.318c-0.808,1.417-1.659,2.773-2.531,4.072
	c-1.551,0.116-3.166,0.18-4.843,0.18s-3.292-0.063-4.841-0.18c-0.873-1.299-1.724-2.655-2.532-4.072
	c-0.836-1.464-1.586-2.907-2.258-4.318c0.672-1.411,1.422-2.854,2.258-4.319c0.809-1.417,1.659-2.774,2.533-4.073
	c1.549-0.116,3.164-0.18,4.841-0.18s3.292,0.063,4.841,0.18c0.873,1.298,1.725,2.656,2.533,4.073
	c0.837,1.464,1.586,2.907,2.258,4.319C58.96,51.411,58.211,52.854,57.374,54.318z M60.727,52.431
	c0.714,1.688,1.304,3.312,1.78,4.855c-1.56,0.348-3.244,0.638-5.042,0.853c0.577-0.909,1.146-1.84,1.695-2.801
	C59.717,54.365,60.235,53.395,60.727,52.431z M50,64.644c-1.122-1.24-2.241-2.614-3.335-4.1c1.091,0.053,2.202,0.084,3.335,0.084
	s2.243-0.031,3.335-0.084C52.242,62.029,51.122,63.402,50,64.644z M42.534,58.139c-1.797-0.215-3.482-0.505-5.042-0.853
	c0.478-1.544,1.067-3.169,1.781-4.855c0.491,0.964,1.011,1.935,1.566,2.907C41.389,56.301,41.957,57.229,42.534,58.139z
	 M39.273,47.57c-0.714-1.688-1.304-3.313-1.781-4.857c1.56-0.347,3.245-0.638,5.043-0.852c-0.578,0.909-1.146,1.839-1.695,2.801
	C40.284,45.635,39.764,46.605,39.273,47.57z M50,35.357c1.122,1.24,2.242,2.614,3.335,4.1c-1.092-0.054-2.202-0.084-3.335-0.084
	s-2.244,0.031-3.335,0.083C47.759,37.971,48.878,36.597,50,35.357z M59.16,44.663c-0.549-0.963-1.118-1.893-1.695-2.802
	c1.798,0.215,3.482,0.505,5.043,0.853c-0.478,1.544-1.067,3.169-1.781,4.857C60.235,46.605,59.717,45.635,59.16,44.663z
	 M37.903,28.788c0.44-0.257,0.958-0.386,1.548-0.386c0.424,0,0.886,0.067,1.382,0.2c2.282,0.612,4.985,2.498,7.74,5.259
	c-1.551,1.702-3.091,3.646-4.572,5.78c-2.522,0.228-4.897,0.596-7.072,1.085C35.351,34.56,35.784,30.025,37.903,28.788z M25.659,50
	c0-2.465,3.703-5.101,9.829-6.789c0.665,2.166,1.537,4.447,2.61,6.789c-1.073,2.341-1.945,4.624-2.61,6.789
	C29.362,55.101,25.659,52.465,25.659,50z M40.833,71.398c-1.188,0.316-2.174,0.255-2.93-0.187c-2.12-1.237-2.552-5.772-0.973-11.938
	c2.175,0.49,4.549,0.857,7.071,1.085c1.48,2.135,3.021,4.078,4.572,5.781C45.819,68.901,43.116,70.786,40.833,71.398z
	 M62.097,71.212c-0.757,0.442-1.741,0.504-2.93,0.187c-2.283-0.612-4.986-2.497-7.741-5.259c1.552-1.702,3.092-3.646,4.572-5.78
	c2.522-0.228,4.896-0.596,7.071-1.086C64.649,65.439,64.217,69.975,62.097,71.212z M64.512,56.788
	c-0.665-2.165-1.536-4.447-2.609-6.789c1.073-2.341,1.944-4.624,2.609-6.789c6.126,1.688,9.829,4.323,9.829,6.789
	S70.638,55.101,64.512,56.788z"/>
<path fill="#1F212B" d="M39.438,73.999c-1.009,0-1.932-0.241-2.743-0.715c-3.176-1.854-3.965-7.046-2.179-14.27
	C27.356,56.979,23.259,53.702,23.259,50c0-3.702,4.097-6.979,11.255-9.015c-1.786-7.224-0.997-12.415,2.18-14.27
	c1.329-0.777,2.93-0.923,4.76-0.432c2.549,0.683,5.499,2.619,8.545,5.608c3.047-2.989,5.997-4.925,8.545-5.608
	c1.83-0.49,3.432-0.344,4.762,0.432c3.176,1.855,3.965,7.046,2.179,14.27C72.645,43.021,76.74,46.297,76.74,50
	c0,3.703-4.096,6.98-11.255,9.015c1.786,7.224,0.997,12.414-2.179,14.27c-1.321,0.771-2.938,0.92-4.761,0.432
	c-2.55-0.683-5.499-2.619-8.546-5.607c-3.046,2.988-5.996,4.925-8.545,5.607c-0.701,0.188-1.379,0.283-2.013,0.283
	C39.44,73.999,39.439,73.999,39.438,73.999z M39.443,26.687c-0.892,0-1.696,0.207-2.404,0.622C34.143,29,33.478,34.17,35.26,41.14
	c0.046,0.181-0.061,0.366-0.242,0.416C28.085,43.467,23.945,46.625,23.945,50c0,3.375,4.14,6.533,11.074,8.445
	c0.18,0.05,0.287,0.234,0.241,0.415c-1.783,6.97-1.118,12.142,1.779,13.832c0.706,0.412,1.513,0.621,2.398,0.621
	c0.001,0,0.003,0,0.004,0c0.575,0,1.192-0.087,1.835-0.259c2.5-0.67,5.434-2.63,8.481-5.67c0.134-0.134,0.351-0.134,0.484,0
	c3.047,3.039,5.98,4.999,8.481,5.67c1.641,0.438,3.074,0.316,4.237-0.362c2.896-1.691,3.562-6.862,1.778-13.832
	c-0.046-0.181,0.062-0.365,0.242-0.415c6.934-1.912,11.073-5.069,11.073-8.445c0-3.375-4.14-6.533-11.073-8.444
	c-0.181-0.049-0.288-0.235-0.242-0.416c1.782-6.97,1.117-12.141-1.778-13.832c-1.165-0.681-2.592-0.803-4.239-0.362
	c-2.5,0.67-5.433,2.63-8.48,5.67c-0.133,0.133-0.351,0.133-0.484,0c-3.048-3.041-5.98-5-8.481-5.67
	C40.631,26.773,40.02,26.687,39.443,26.687z M60.55,71.94c-0.455,0-0.946-0.07-1.472-0.211c-2.284-0.612-5.014-2.46-7.895-5.348
	c-0.129-0.13-0.134-0.339-0.011-0.474c1.553-1.703,3.081-3.637,4.543-5.744c0.058-0.084,0.149-0.138,0.252-0.146
	c2.476-0.224,4.841-0.587,7.027-1.079c0.179-0.041,0.36,0.069,0.406,0.25c1.603,6.255,1.168,10.976-1.132,12.318l0,0
	C61.776,71.796,61.201,71.94,60.55,71.94z M51.9,66.128c2.709,2.669,5.247,4.375,7.354,4.939c1.097,0.292,1.995,0.242,2.669-0.151
	l0,0c1.957-1.144,2.302-5.534,0.895-11.235c-2.075,0.451-4.303,0.79-6.63,1.006C54.807,62.67,53.365,64.498,51.9,66.128z
	 M39.45,71.94c-0.651,0-1.226-0.145-1.719-0.432c-2.301-1.344-2.735-6.064-1.133-12.319c0.046-0.18,0.229-0.288,0.407-0.25
	c2.186,0.492,4.55,0.855,7.027,1.079c0.101,0.008,0.193,0.062,0.251,0.146c1.462,2.107,2.991,4.041,4.544,5.744
	c0.124,0.135,0.119,0.344-0.011,0.474c-2.881,2.886-5.611,4.735-7.894,5.348l0,0C40.396,71.87,39.904,71.94,39.45,71.94z
	 M37.181,59.681c-1.407,5.699-1.063,10.092,0.895,11.235c0.673,0.393,1.572,0.443,2.669,0.151l0,0
	c2.108-0.564,4.646-2.271,7.355-4.939c-1.465-1.63-2.906-3.458-4.288-5.441C41.485,60.471,39.257,60.132,37.181,59.681z M50,64.985
	c-0.097,0-0.189-0.041-0.254-0.112c-1.14-1.262-2.27-2.65-3.357-4.127c-0.078-0.106-0.088-0.249-0.026-0.365
	c0.063-0.116,0.179-0.188,0.319-0.181c2.267,0.11,4.37,0.11,6.637,0c0.138-0.008,0.257,0.064,0.319,0.181s0.053,0.259-0.026,0.365
	c-1.087,1.477-2.217,2.865-3.357,4.127C50.189,64.944,50.097,64.985,50,64.985z M47.372,60.918c0.857,1.135,1.739,2.213,2.628,3.212
	c0.89-0.999,1.771-2.076,2.628-3.212C50.837,60.986,49.163,60.986,47.372,60.918z M50,58.913c-1.625,0-3.262-0.06-4.868-0.181
	c-0.104-0.007-0.2-0.063-0.259-0.149c-0.917-1.365-1.773-2.742-2.545-4.095c-0.809-1.418-1.573-2.878-2.27-4.341
	c-0.044-0.093-0.044-0.202,0-0.294c0.697-1.463,1.46-2.924,2.27-4.342c0.771-1.351,1.628-2.728,2.546-4.094
	c0.058-0.087,0.154-0.143,0.259-0.151c3.211-0.24,6.523-0.24,9.733,0c0.105,0.008,0.201,0.063,0.26,0.151
	c0.918,1.366,1.774,2.744,2.546,4.094c0.81,1.418,1.572,2.878,2.27,4.342c0.045,0.093,0.045,0.202,0,0.294
	c-0.697,1.463-1.46,2.923-2.27,4.341l0,0c-0.772,1.353-1.628,2.729-2.546,4.095c-0.058,0.087-0.153,0.142-0.258,0.149
	C53.262,58.854,51.624,58.913,50,58.913z M45.35,58.061c3.071,0.222,6.229,0.222,9.3,0c0.873-1.305,1.688-2.62,2.427-3.913
	c0.773-1.354,1.505-2.75,2.176-4.148c-0.671-1.398-1.402-2.793-2.176-4.148c-0.737-1.291-1.554-2.607-2.428-3.914
	c-3.071-0.221-6.229-0.221-9.299,0c-0.874,1.307-1.69,2.623-2.427,3.914c-0.773,1.355-1.505,2.75-2.176,4.148
	c0.671,1.398,1.402,2.793,2.176,4.148C43.661,55.44,44.477,56.756,45.35,58.061z M57.466,58.482c-0.117,0-0.228-0.06-0.29-0.16
	c-0.071-0.112-0.07-0.255,0-0.366c0.637-1.002,1.188-1.914,1.687-2.788c0.524-0.917,1.048-1.891,1.56-2.893
	c0.06-0.118,0.188-0.189,0.317-0.187c0.132,0.005,0.251,0.086,0.304,0.209c0.695,1.646,1.298,3.29,1.792,4.888
	c0.029,0.092,0.018,0.191-0.031,0.273c-0.048,0.083-0.128,0.142-0.222,0.163c-1.611,0.359-3.319,0.648-5.076,0.858
	C57.492,58.481,57.479,58.482,57.466,58.482z M60.693,53.243c-0.407,0.781-0.821,1.54-1.234,2.265c-0.4,0.7-0.834,1.425-1.316,2.2
	c1.351-0.18,2.667-0.407,3.926-0.677C61.674,55.788,61.213,54.519,60.693,53.243z M42.534,58.482c-0.014,0-0.027-0.001-0.041-0.002
	c-1.755-0.211-3.464-0.499-5.075-0.859c-0.093-0.021-0.173-0.08-0.222-0.163s-0.059-0.182-0.031-0.272
	c0.494-1.599,1.096-3.243,1.792-4.888c0.052-0.123,0.171-0.205,0.304-0.21c0.125-0.013,0.257,0.068,0.317,0.188
	c0.511,1.001,1.035,1.975,1.559,2.893c0.499,0.873,1.051,1.785,1.687,2.786c0.071,0.113,0.071,0.255,0,0.367
	C42.761,58.423,42.652,58.482,42.534,58.482z M37.932,57.031c1.259,0.27,2.576,0.497,3.927,0.677c-0.483-0.775-0.917-1.5-1.316-2.2
	c-0.414-0.725-0.828-1.484-1.235-2.265C38.788,54.519,38.327,55.788,37.932,57.031z M64.512,57.131
	c-0.147,0-0.282-0.095-0.327-0.242c-0.669-2.18-1.541-4.449-2.594-6.746c-0.042-0.09-0.042-0.196,0-0.286
	c1.053-2.296,1.925-4.566,2.594-6.747c0.055-0.178,0.243-0.277,0.419-0.229c6.218,1.713,10.08,4.44,10.08,7.119
	s-3.862,5.406-10.081,7.12C64.572,57.127,64.541,57.131,64.512,57.131z M62.279,50c0.985,2.164,1.813,4.304,2.461,6.369
	c5.636-1.606,9.258-4.091,9.258-6.369s-3.622-4.762-9.258-6.368C64.091,45.697,63.264,47.837,62.279,50z M35.488,57.131
	c-0.03,0-0.06-0.004-0.091-0.012c-6.218-1.714-10.081-4.441-10.081-7.12s3.862-5.405,10.081-7.119
	c0.177-0.048,0.364,0.052,0.419,0.229c0.669,2.18,1.542,4.45,2.594,6.747c0.042,0.09,0.042,0.195,0,0.286
	c-1.053,2.296-1.925,4.567-2.593,6.746C35.771,57.036,35.635,57.131,35.488,57.131z M35.26,43.631
	c-5.635,1.606-9.258,4.09-9.258,6.368s3.623,4.762,9.258,6.369c0.649-2.064,1.476-4.204,2.46-6.369
	C36.736,47.837,35.909,45.697,35.26,43.631z M60.727,47.913c-0.128,0-0.246-0.072-0.305-0.187c-0.52-1.021-1.029-1.967-1.559-2.894
	l0,0c-0.497-0.872-1.049-1.784-1.688-2.788c-0.071-0.112-0.071-0.255,0-0.367c0.07-0.111,0.196-0.173,0.331-0.158
	c1.758,0.21,3.465,0.499,5.076,0.858c0.094,0.021,0.174,0.08,0.223,0.163c0.048,0.083,0.059,0.182,0.03,0.273
	c-0.494,1.602-1.098,3.247-1.792,4.89c-0.052,0.123-0.171,0.204-0.304,0.209C60.734,47.913,60.73,47.913,60.727,47.913z
	 M59.458,44.492c0.418,0.734,0.826,1.48,1.235,2.264c0.519-1.272,0.979-2.543,1.374-3.788c-1.259-0.27-2.576-0.497-3.927-0.677
	C58.626,43.068,59.059,43.792,59.458,44.492L59.458,44.492z M39.273,47.913c-0.004,0-0.008,0-0.013,0
	c-0.133-0.004-0.251-0.085-0.303-0.209c-0.695-1.643-1.298-3.288-1.792-4.889c-0.029-0.091-0.017-0.191,0.031-0.273
	c0.048-0.083,0.129-0.142,0.222-0.163c1.611-0.36,3.319-0.648,5.077-0.858c0.134-0.013,0.261,0.046,0.331,0.158
	c0.071,0.112,0.07,0.255,0,0.367c-0.638,1.003-1.19,1.916-1.688,2.788c-0.528,0.927-1.039,1.873-1.558,2.894
	C39.52,47.841,39.402,47.913,39.273,47.913z M37.932,42.968c0.396,1.245,0.857,2.516,1.375,3.788c0.41-0.784,0.816-1.53,1.235-2.264
	c0.399-0.7,0.833-1.424,1.317-2.201C40.508,42.471,39.191,42.698,37.932,42.968z M63.07,41.068c-0.025,0-0.05-0.003-0.075-0.008
	c-2.186-0.492-4.55-0.855-7.027-1.079c-0.101-0.009-0.194-0.063-0.252-0.146c-1.462-2.109-2.99-4.041-4.543-5.744
	c-0.124-0.135-0.119-0.344,0.011-0.473c2.88-2.887,5.61-4.736,7.895-5.348l0,0c1.282-0.343,2.357-0.266,3.191,0.221
	c2.3,1.344,2.734,6.065,1.133,12.32C63.362,40.965,63.225,41.068,63.07,41.068z M56.188,39.313c2.326,0.216,4.555,0.554,6.63,1.006
	c1.407-5.7,1.063-10.092-0.896-11.236c-0.671-0.392-1.571-0.443-2.668-0.151c-2.107,0.565-4.646,2.271-7.355,4.941
	C53.364,35.501,54.806,37.33,56.188,39.313z M36.929,41.068c-0.154,0-0.292-0.104-0.332-0.258
	c-1.602-6.255-1.168-10.976,1.132-12.319c0,0,0,0,0.001,0c0.833-0.486,1.911-0.563,3.19-0.221c2.285,0.612,5.014,2.461,7.895,5.348
	c0.129,0.129,0.133,0.338,0.011,0.473c-1.552,1.703-3.081,3.635-4.543,5.744c-0.058,0.083-0.15,0.137-0.251,0.146
	c-2.476,0.224-4.841,0.586-7.028,1.079C36.979,41.065,36.955,41.068,36.929,41.068z M38.076,29.083
	c-1.958,1.144-2.302,5.536-0.896,11.236c2.076-0.452,4.305-0.79,6.631-1.006c1.383-1.983,2.823-3.812,4.288-5.44
	c-2.709-2.67-5.248-4.376-7.356-4.941C39.651,28.64,38.75,28.691,38.076,29.083L38.076,29.083z M53.335,39.798
	c-0.006,0-0.011,0-0.017,0c-2.267-0.11-4.37-0.11-6.636,0c-0.141,0.003-0.256-0.064-0.319-0.18
	c-0.063-0.117-0.053-0.258,0.026-0.365c1.088-1.478,2.217-2.866,3.357-4.126c0.13-0.143,0.379-0.143,0.509,0
	c1.14,1.259,2.269,2.648,3.356,4.126c0.079,0.106,0.089,0.249,0.027,0.365C53.577,39.729,53.46,39.798,53.335,39.798z M50,39.029
	c0.852,0,1.732,0.018,2.628,0.053c-0.858-1.136-1.74-2.213-2.628-3.211c-0.888,0.999-1.77,2.075-2.628,3.211
	C48.268,39.047,49.148,39.029,50,39.029z"/>
</svg>
