<?xml version="1.0" encoding="utf-8"?>
<!-- Generator: Adobe Illustrator 16.0.3, SVG Export Plug-In . SVG Version: 6.00 Build 0)  -->
<!DOCTYPE svg PUBLIC "-//W3C//DTD SVG 1.1//EN" "http://www.w3.org/Graphics/SVG/1.1/DTD/svg11.dtd">
<svg version="1.1" id="Capa_1" xmlns="http://www.w3.org/2000/svg" xmlns:xlink="http://www.w3.org/1999/xlink" x="0px" y="0px"
	 width="48px" height="48px" viewBox="0 0 48 48" enable-background="new 0 0 48 48" xml:space="preserve">
<g>
	<path fill-rule="evenodd" clip-rule="evenodd" fill="#0080CA" d="M35.969,0c0,8.357-0.009,16.716,0.016,25.073
		c0.002,0.829-0.202,1.253-0.781,1.666c-3.74,2.663-7.45,5.39-11.169,8.097c-0.187,0.139-0.377,0.068-0.538-0.045
		c-1.832-1.288-3.714-2.471-5.397-4.074c1.036-1.032,1.98-1.629,2.993-2.39c2.708-2.037,5.441-4.025,8.195-5.96
		c0.596-0.419,0.76-0.891,0.745-1.692c-0.039-2.075-0.008-4.153-0.018-6.229c-0.002-0.384,0.152-0.902-0.104-1.121
		c-0.287-0.245-0.563,0.216-0.817,0.401c-3.391,2.457-6.771,4.936-10.158,7.402c-0.271,0.197-0.563,0.344-0.846,0.514
		c-0.249-0.354-0.279-0.792-0.279-1.232c0.004-2.265-0.054-4.529,0.03-6.792c0.057-0.663,0.399-1.035,0.833-1.347
		c5.317-3.827,10.603-7.725,15.9-11.596C34.96,0.391,35.407,0.307,35.779,0C35.842,0,35.905,0,35.969,0z"/>
	<path fill-rule="evenodd" clip-rule="evenodd" fill="#00AFFE" d="M18.054,13.135c0.012,2.834,0.024,5.669,0.036,8.504
		c-1.385-0.529-2.52-1.659-3.76-2.529c-2.509-1.76-4.988-3.59-7.458-5.439c-0.673-0.504-0.909-0.571-0.899,0.61
		c0.042,4.952,0.018,9.905,0.018,14.857c0,0.383,0,0.766,0,1.345c-2.078-1.512-4.012-2.918-5.945-4.324
		c0-8.402-0.003-16.804,0.012-25.206c0-0.31-0.213-0.741,0.179-0.955c2.121,1.172,4.045,2.796,6.044,4.242
		c3.597,2.601,7.193,5.204,10.771,7.845C17.428,12.365,17.863,12.568,18.054,13.135z"/>
	<path fill-rule="evenodd" clip-rule="evenodd" fill="#0080CA" d="M41.297,31.059c0.555-0.4,0.723-0.83,0.711-1.597
		c-0.039-2.272,0-4.546-0.025-6.818c-0.006-0.588,0.132-0.954,0.543-1.244c1.813-1.277,3.612-2.584,5.417-3.88
		c0,5.84,0,11.68,0,17.52c-1.254,1.365-2.776,2.189-4.187,3.229c-4.167,3.071-8.34,6.128-12.54,9.126
		c-0.401,0.285-0.9,0.966-1.347-0.001c-0.19-2.435-0.078-4.874-0.064-7.31c0.001-0.281,0.062-0.556,0.228-0.769"/>
	<path fill-rule="evenodd" clip-rule="evenodd" fill="#00AFFE" d="M18.1,30.715c1.557,0.775,2.876,2.097,4.364,3.034
		c0.533,0.336,1.047,0.722,1.571,1.086c1.921,1.66,3.997,2.993,6,4.479c0.012,2.832,0.025,5.662,0.038,8.493
		c0.008,0.064,0.009,0.128,0.004,0.193c-0.064,0-0.127,0-0.19,0c-3.207-2.37-8.504-6.483-11.797-8.642"/>
	<path fill-rule="evenodd" clip-rule="evenodd" fill="#0080CA" d="M47.943,8.88c-1.79,0.905-3.334,2.375-5.031,3.494
		c-0.271,0.179-0.538,0.368-0.917,0.626c0-2.81,0.009-5.476-0.007-8.142c-0.003-0.574,0.318-0.726,0.613-0.941
		c1.585-1.158,3.172-2.311,4.755-3.473C47.509,0.333,47.727,0.296,47.753,0c0.421,0.019,0.175,0.42,0.176,0.6
		C47.949,3.36,47.943,6.12,47.943,8.88z"/>
</g>
</svg>
